<svg width="40" height="40" viewBox="0 0 40 40" fill="none" xmlns="http://www.w3.org/2000/svg">
<circle cx="20" cy="20" r="19.5" stroke="#8C3213"/>
<rect width="18.4" height="16" transform="translate(11 12)" fill="white"/>
<path d="M19.7998 13.8475C18.9078 12.9405 17.6947 12.4281 16.4092 12.4281C13.7847 12.4281 11.6498 14.563 11.6498 17.1875C11.6498 18.7345 12.2279 20.3316 13.3521 21.9329L13.3521 21.9329C13.4741 22.1067 13.7138 22.1486 13.8876 22.0266C13.8876 22.0266 13.8876 22.0266 13.8876 22.0266L13.8014 21.9039C13.9073 21.8295 13.9329 21.6833 13.8585 21.5774C12.8035 20.0746 12.2686 18.5977 12.2686 17.1875C12.2686 14.9043 14.126 13.0469 16.4092 13.0469C17.6578 13.0469 18.8275 13.6024 19.6182 14.571C19.6628 14.6256 19.7294 14.6572 19.7998 14.6572C19.8702 14.6572 19.9369 14.6256 19.9814 14.571C20.7721 13.6024 21.9418 13.0469 23.1904 13.0469C25.4736 13.0469 27.3311 14.9046 27.3311 17.188L19.7998 13.8475ZM19.7998 13.8475C20.6918 12.9405 21.9049 12.4281 23.1904 12.4281C25.8149 12.4281 27.9498 14.5633 27.9498 17.1881C27.9495 18.5207 27.5189 19.8955 26.6799 21.2731C26.0161 22.3631 25.0949 23.4598 23.9445 24.5334C21.9942 26.3535 20.0162 27.5063 19.9924 27.5201L19.9924 27.5201C19.9328 27.5547 19.8662 27.5719 19.7998 27.5719C19.7349 27.5719 19.6699 27.5554 19.6114 27.5225M19.7998 13.8475L27.1811 17.188C27.1808 18.5292 26.6776 19.8183 25.9529 20.9785C25.2285 22.1382 24.288 23.1606 23.4266 23.9652C21.8889 25.4015 20.332 26.4095 19.7987 26.739C19.7455 26.7078 19.6851 26.6731 19.6181 26.6347C18.8215 26.178 17.0837 25.1816 15.3312 23.0184C15.1975 22.8534 14.9554 22.8282 14.7905 22.9617L14.7905 22.9617C14.6256 23.0954 14.6002 23.3374 14.7339 23.5024M14.7339 23.5024C14.7339 23.5024 14.7339 23.5024 14.7339 23.5024L14.8504 23.4079L14.7339 23.5024ZM14.7339 23.5024C15.8929 24.9329 17.1037 25.9329 18.0296 26.5781C18.4926 26.9008 18.8846 27.1349 19.1636 27.2898C19.3032 27.3673 19.4144 27.425 19.4922 27.464C19.531 27.4836 19.5614 27.4984 19.5827 27.5087L19.6071 27.5204C19.6091 27.5214 19.6105 27.5221 19.6114 27.5225M19.6114 27.5225C19.6132 27.5234 19.6132 27.5234 19.6123 27.5229C19.6114 27.5225 19.6094 27.5214 19.6073 27.5202L19.6824 27.3903L19.6073 27.5201C19.6086 27.5209 19.61 27.5217 19.6114 27.5225ZM23.1904 13.1969C25.3907 13.1969 27.181 14.9874 27.1811 17.188L20.0976 14.6659C20.8599 13.7321 21.9869 13.1969 23.1904 13.1969Z" fill="#8C3213" stroke="#8C3213" stroke-width="0.3"/>
</svg>
