<svg width="40" height="40" viewBox="0 0 40 40" fill="none" xmlns="http://www.w3.org/2000/svg">
<circle cx="20" cy="20" r="19.5" stroke="#8C3213"/>
<g clip-path="url(#clip0_5106_39760)">
<rect width="18.4" height="16" transform="translate(11 14)" fill="white"/>
<path d="M20.2012 28.6746C20.0855 28.6746 19.9698 28.6322 19.8792 28.5472L18.3093 27.0749C18.1197 26.897 18.1101 26.5992 18.288 26.4096C18.4657 26.2199 18.7635 26.2103 18.9532 26.3883L20.2026 27.5601L26.3063 21.8905C27.581 20.6152 27.581 18.5208 26.2938 17.2336C25.6705 16.6101 24.8415 16.2667 23.9595 16.2667C23.0777 16.2667 22.2487 16.6101 21.6251 17.2336C21.0814 17.7773 20.7439 18.4953 20.6726 19.259C20.6716 19.3818 20.6223 19.5002 20.5345 19.5878C20.4367 19.6858 20.3004 19.7369 20.1629 19.724C19.9183 19.7035 19.7317 19.4996 19.7298 19.2589C19.6583 18.4954 19.3209 17.7773 18.7772 17.2336C18.1536 16.6101 17.3247 16.2667 16.4428 16.2667C15.561 16.2667 14.732 16.6101 14.1084 17.2336C13.4849 17.8572 13.1415 18.6861 13.1415 19.5679C13.1415 20.4498 13.4849 21.2788 14.1084 21.9024L17.3837 24.9445C17.5741 25.1213 17.5852 25.4192 17.4082 25.6095C17.2312 25.8002 16.9336 25.811 16.7431 25.634L13.4554 22.5799C12.6415 21.7666 12.2002 20.7012 12.2002 19.5679C12.2002 18.4347 12.6415 17.3693 13.4429 16.5681C14.2442 15.7667 15.3096 15.3254 16.4429 15.3254C17.5761 15.3254 18.6416 15.7667 19.4427 16.5681C19.7484 16.8737 20.0034 17.2222 20.2012 17.5998C20.399 17.2222 20.6539 16.8736 20.9594 16.5681C21.7609 15.7666 22.8263 15.3254 23.9595 15.3254C25.0929 15.3254 26.1583 15.7667 26.9596 16.5681C28.6137 18.2222 28.6137 20.9137 26.9596 22.568L20.5216 28.5487C20.4311 28.6327 20.3161 28.6746 20.2012 28.6746Z" fill="#8C3213"/>
</g>
<defs>
<clipPath id="clip0_5106_39760">
<rect width="18.4" height="16" fill="white" transform="translate(11 14)"/>
</clipPath>
</defs>
</svg>
